<svg version="1.2" xmlns="http://www.w3.org/2000/svg" viewBox="0 0 640 640" width="640" height="640">
	<style>
		.s0 { fill: #1d272d } 
		.s1 { opacity: 1;fill: #26c6da } /* Website Blue (Primary) */
		.s2 { fill: #252824 } 
		.s3 { fill: #f8fafc } /* Website White (Text) */
		.s4 { opacity: .5;fill: none;stroke: #000000;stroke-miterlimit:100 } 
	</style>
	<g id="Background">
		<path id="Path 1" class="s1" d="m183.98 153.25c-0.01 1.79-0.12 33.4-0.25 70.25l-0.23 67c-7.75 13.66-10.9 19.32-12 21.4-1.1 2.07-3.01 5.19-4.25 6.93-1.24 1.75-2.24 3.51-2.23 3.92 0.01 0.41-1.13 2.32-2.52 4.25-1.39 1.93-2.53 4.51-2.52 5.75 0.01 1.24-0.77 2.64-1.73 3.12-0.96 0.48-2.09 2.05-2.5 3.5-0.41 1.45-1.31 3.19-2 3.88-0.69 0.69-2.33 3.27-3.65 5.75-1.32 2.48-2.99 5.18-3.72 6-0.73 0.82-1.34 2.06-1.35 2.75-0.02 0.69 0.65 1.48 1.47 1.75 0.82 0.27 21.41 0.49 45.75 0.48 24.34 0 44.93-0.41 45.75-0.89 1.29-0.75 1.18-1.32-0.75-3.98-1.24-1.71-2.27-3.67-2.28-4.36-0.02-0.69-1.58-3.73-3.47-6.75-1.89-3.02-3.45-6.06-3.47-6.75-0.01-0.69-0.71-1.48-1.53-1.75-0.82-0.27-2.01-2.19-2.63-4.25-0.62-2.06-1.69-4.43-2.38-5.25-0.69-0.82-1.53-2.51-1.87-3.75-0.34-1.24-1.3-2.48-2.12-2.75-0.82-0.27-1.5-1.4-1.5-2.5 0-1.1 0.34-2 0.75-1.99 0.41 0 1.93 0.79 3.37 1.75 1.43 0.95 4.36 2.92 6.5 4.37 2.13 1.45 5.52 3.92 7.52 5.5 2 1.58 4.64 3.55 5.86 4.37 1.23 0.82 3.3 2.29 4.62 3.25 1.31 0.96 2.72 1.77 3.13 1.79 0.41 0.02 2.32 1.5 4.25 3.29 1.93 1.79 5.75 4.57 8.5 6.17 2.75 1.61 5.56 3.72 6.25 4.71 0.69 0.98 2.04 1.78 3 1.77 1.28-0.01 2.36 1.81 4.01 6.75 1.25 3.72 2.26 7.33 2.25 8.02 0 0.69 0.44 1.25 0.99 1.25 0.55 0 0.99 0.56 0.98 1.25-0.01 0.69 3.15 10.93 7.02 22.75 3.87 11.82 7.03 22.06 7.02 22.75-0.01 0.69 0.43 1.25 0.98 1.25 0.55 0 1.01 0.79 1.02 1.75 0.02 0.96 0.94 4.45 2.06 7.75 1.11 3.3 2.4 6.45 2.85 7 0.46 0.55 1.07 2.57 1.36 4.5 0.29 1.93 1.27 5.75 2.19 8.5 0.92 2.75 2.02 5.68 2.45 6.5 0.49 0.93 3.2 1.82 7.18 2.35 3.51 0.46 9.94 0.46 14.29 0 5.37-0.58 8.13-1.33 8.63-2.35 0.41-0.82 6.64-19.39 13.85-41.25 7.22-21.86 13.12-40.43 13.12-41.25 0-0.82 0.45-1.5 1-1.5 0.55 0 0.99-0.56 0.99-1.25-0.01-0.69 1-4.3 2.25-8.02 1.24-3.72 2.82-6.76 3.51-6.75 0.69 0.01 4.01-2.12 7.37-4.73 3.37-2.61 8.21-6.21 10.75-7.98 2.55-1.78 5.19-3.25 5.88-3.25 0.69-0.01 1.4-0.58 1.59-1.27 0.18-0.69 3.67-3.46 7.75-6.17 4.07-2.71 9.21-6.37 11.41-8.15 2.2-1.78 5.24-3.73 6.75-4.33 2.45-0.98 2.75-0.88 2.75 0.9 0 1.1-0.56 2.34-1.25 2.75-0.69 0.41-2.01 2.1-2.93 3.75-0.92 1.65-3.15 5.93-4.96 9.5-1.81 3.57-4.78 8.75-6.61 11.5-1.83 2.75-3.31 5.45-3.28 6 0.02 0.55-0.86 2.69-1.97 4.75l-2 3.75c3.49 0.75 24.41 0.98 48.75 0.99 24.34 0 44.46-0.33 44.71-0.74 0.26-0.41-1.14-3.9-3.12-7.75-1.97-3.85-3.92-7.23-4.34-7.5-0.42-0.27-1.7-2.3-2.84-4.5-1.15-2.2-2.82-5.57-3.73-7.5-0.91-1.93-2-3.73-2.43-4-0.43-0.27-1.5-2.19-2.39-4.25-0.88-2.06-2.06-3.75-2.61-3.75-0.55 0-1.26-1.24-1.57-2.75-0.31-1.51-2-4.99-3.75-7.74-1.75-2.74-3.94-6.34-4.88-8-0.93-1.65-2.85-5.37-4.25-8.26l-2.55-5.25c0.03-101.14 0.03-132.19 0.02-134.25-0.02-3.1-0.37-3.75-2.07-3.75-1.12 0-3.07 1.01-4.32 2.25-1.25 1.24-5.39 4.94-9.2 8.23-3.81 3.29-8.84 7.9-11.18 10.25-2.34 2.35-4.89 4.61-5.67 5.02-0.78 0.41-5.37 4.13-10.21 8.25-4.83 4.13-12.85 11.21-17.83 15.75-4.97 4.54-9.6 8.25-10.29 8.25-0.69 0-1.47 0.79-1.73 1.75-0.26 0.96-1.72 2.5-3.25 3.41-1.52 0.91-5.02 3.72-7.77 6.23l-5 4.57-95 0.01c-10.46-9.28-13.95-11.97-14.5-11.97-0.55 0-1.23-0.9-1.5-2-0.27-1.1-0.95-2-1.5-2-0.55 0-4.03-2.59-7.73-5.75-3.7-3.16-7.42-6.5-8.25-7.42-0.84-0.91-7.82-6.96-15.52-13.43-7.7-6.47-14.95-12.7-16.1-13.83-1.16-1.14-4.53-4.18-7.5-6.77-2.97-2.58-6.97-6.08-8.9-7.76-1.93-1.68-4.29-3.05-5.25-3.05-1.3 0.01-1.76 0.84-1.77 3.26zm190.72 223.99c-0.86 1.79-2.77 7.31-4.23 12.26-1.46 4.95-3.22 10.35-3.92 12-0.7 1.65-1.87 5.25-2.61 8-0.73 2.75-1.91 6.12-2.63 7.5-0.71 1.37-1.35 3.01-1.41 3.64-0.06 0.62-1.21 4.67-2.55 9-1.34 4.32-2.8 8.54-3.25 9.36-0.45 0.82-1.16 3.07-1.58 5-0.41 1.93-1.08 3.95-1.49 4.5-0.41 0.55-1.56 4.15-2.55 8-1 3.85-2.14 7.45-2.55 8-0.4 0.55-1.9 4.82-3.32 9.5-1.43 4.68-2.6 8.84-2.6 9.25-0.01 0.41 1 0.74 2.24 0.72 1.24-0.02 4.04-1.8 6.25-3.97 2.2-2.17 6.25-5.76 9-7.99 2.75-2.23 5.66-4.61 6.48-5.28 0.81-0.68 3.51-2.84 6-4.8 2.48-1.97 5.87-4.8 7.52-6.29 1.65-1.5 3.79-2.93 4.75-3.18 0.96-0.25 1.75-1.14 1.75-1.96 0-0.82 0.79-1.81 1.75-2.18 0.96-0.38 4.55-2.96 7.97-5.75 3.42-2.79 9.36-7.55 13.2-10.57 3.84-3.02 9.14-7.43 11.78-9.78 2.64-2.36 7.28-6.17 10.3-8.47 3.02-2.31 7.98-6.32 11-8.93 3.02-2.6 6.06-4.75 6.75-4.78 0.69-0.02 1.24-0.38 1.22-0.79-0.01-0.41 3.03-3.19 6.75-6.16 3.73-2.98 7.48-6.13 8.33-7 0.85-0.88 2.43-2.16 3.5-2.86 1.07-0.7 3.45-2.28 5.27-3.5 1.84-1.24 3.18-2.9 2.99-3.73-0.29-1.3-6.75-1.53-49.44-1.76l-49.1-0.26z"/>
		<path id="Path 2" fill-rule="evenodd" class="s2" d="m408.11 331c0.49 0 0.89 0.9 0.89 2 0 1.1-0.56 2.27-1.25 2.61-0.69 0.33-1.7 0.12-2.25-0.46q-1.01-1.07 0.36-2.61c0.75-0.85 1.76-1.54 2.25-1.54zm-192.11 39.19c26.25 0.14 39.74 0.56 40.21 1.26 0.39 0.58 2.53 0.94 4.75 0.8 3.93-0.24 4.11-0.11 6.54 4.75 1.37 2.75 2.5 5.9 2.5 7 0 1.1 1.34 4.36 2.97 7.25 1.63 2.89 2.93 6.6 2.89 8.25-0.04 1.65 0.76 5.33 1.78 8.17 1.02 2.84 2.2 5.43 2.61 5.75 0.41 0.32 1.43-0.77 2.25-2.42 0.82-1.65 1.55-4.24 1.62-5.75 0.08-2.07 0.23-2.25 0.59-0.75 0.26 1.1-0.1 4.02-0.79 6.5-0.7 2.48-1.66 4.73-2.13 5-0.48 0.27 0.28 3.99 1.67 8.25 1.4 4.26 2.54 8.65 2.54 9.75 0 1.1 0.87 2.79 1.93 3.75 1.06 0.96 2.42 3.1 3.02 4.75 0.61 1.65 0.87 3.68 0.58 4.5-0.29 0.82 0.37 4.09 1.47 7.25 1.1 3.16 2 6.43 2 7.25 0 0.82 0.45 1.5 1 1.5 0.55 0 1.11 1.01 1.25 2.24 0.15 1.35 1.04 2.37 2.25 2.56 1.1 0.17 2.68 0.55 3.5 0.83 1.21 0.42 1.07 0.89-0.75 2.44-1.24 1.06-2.25 2.61-2.25 3.43 0 0.82 0.23 2.18 0.5 3 0.27 0.82 1.18 1.27 2 1 0.82-0.27 1.5-0.05 1.5 0.5 0 0.55-0.45 1-1 1-0.55 0-0.75 0.79-0.45 1.75 0.31 0.96 0.76 2.76 1 4 0.35 1.77-0.09 2.36-2.05 2.75-1.4 0.28-2.72 1.38-3 2.5-0.29 1.17-1.33 2-2.5 2-1.11 0-2-0.67-2-1.5 0-0.82 0.68-1.73 1.5-2 0.82-0.27 1.5-1.18 1.5-2 0-0.82-1.35-1.95-3-2.5-1.65-0.55-3-1.68-3-2.5 0-0.82-1.24-2.25-2.75-3.16-1.51-0.91-4.1-2.96-5.75-4.55-1.65-1.58-4.68-3.65-6.72-4.59-2.05-0.93-3.74-2.26-3.75-2.95-0.02-0.69-0.82-1.53-1.78-1.87-0.96-0.35-2.65-1.74-3.75-3.1-1.7-2.1-2.34-2.31-4.25-1.38-1.47 0.72-2.42 0.76-2.75 0.1-0.27-0.55-0.27-1.79 0.01-2.75 0.28-0.96-0.17-2.54-1-3.5-0.83-0.96-2.07-1.49-2.76-1.16-0.69 0.32-2.15 0.15-3.25-0.37-1.1-0.53-2.34-2.14-2.75-3.59-0.61-2.15-1.21-2.54-3.25-2.13-1.38 0.27-2.5 0.05-2.5-0.5 0-0.55 0.53-1.11 1.19-1.25 0.65-0.14 0.88-0.81 0.5-1.5-0.38-0.69-1.37-1.25-2.19-1.25-0.82 0-1.5 0.45-1.5 1 0 0.55-0.68 1-1.5 1-1.07 0-1.36-0.72-1-2.5 0.4-1.98-0.17-2.96-2.75-4.73-1.79-1.23-4.46-3.59-5.95-5.25-1.85-2.07-3.19-2.78-4.25-2.27-0.92 0.45-1.35 0.35-1.05-0.25 0.28-0.55-0.2-1.56-1.05-2.25-0.86-0.69-2.89-2.49-4.5-4-1.62-1.51-3.85-2.75-4.95-2.75q-2 0-1.5 1.5c0.28 0.82 0.5 1.95 0.5 2.5 0 0.55 1.12 1.23 2.5 1.5 1.37 0.27 2.95 1.4 3.5 2.5 0.55 1.1 0.78 2.34 0.51 2.75-0.27 0.41-1.06 0.48-1.75 0.16-0.69-0.33-3.06-2.74-5.26-5.36-3.61-4.31-3.84-4.88-2.29-5.91 0.94-0.63 1.73-1.59 1.74-2.14 0.02-0.55-1.42-2-3.21-3.23-1.78-1.23-3.69-2.23-4.24-2.23-0.55 0.01-1.68 0.7-2.5 1.54-0.82 0.84-2.4 1.35-3.5 1.14-1.78-0.34-1.7-0.53 0.78-1.8 1.53-0.78 2.76-2.21 2.75-3.17-0.02-0.96-1.04-2.13-2.28-2.6-1.24-0.46-2.59-1.59-3-2.5-0.41-0.91-1.43-1.65-2.25-1.65-0.82 0-1.66 0.56-1.86 1.25-0.2 0.69-0.77 0.89-1.25 0.45-0.51-0.45-0.36-1.63 0.36-2.75 1.04-1.62 1-1.95-0.25-1.95-0.82 0-1.5-0.45-1.5-1 0-0.55-0.68-1-1.5-1-0.82 0-1.5-0.45-1.5-1 0-0.55-1.16-1.56-2.57-2.25-2.14-1.04-2.71-1-3.44 0.25-0.48 0.82-1.24 1.14-1.68 0.69-0.45-0.44-0.13-1.2 0.69-1.7 1.25-0.74 1-1.41-1.5-3.97-1.65-1.7-3.56-2.84-4.25-2.55-0.69 0.29-2-0.26-2.91-1.22-0.91-0.96-2.82-3.24-4.25-5.06-1.42-1.82-3.38-3.51-4.34-3.75-1.37-0.34-1.63-1.15-1.21-3.69 0.3-1.79 0.64-3.4 0.75-3.57 0.12-0.18 1.78 0.17 3.71 0.78 2.8 0.88 4.1 0.8 6.5-0.44 2.57-1.31 8.67-1.5 42.5-1.33zm62.06 103.11c1.08 0.65 1.96 1.75 1.95 2.44 0 0.69-0.91 1.26-2.01 1.26-1.1 0-2.33-0.87-2.73-1.94-0.4-1.07-0.38-2.17 0.05-2.44 0.43-0.28 1.66 0.03 2.74 0.68z"/>
		<path id="Path 3" class="s3" d="m164 374.74c-0.01 0.42 2.3 2.56 5.12 4.76 2.82 2.2 10.14 8.14 16.25 13.19 6.12 5.06 24.85 20.3 41.63 33.88 16.78 13.57 32.48 26.31 34.91 28.31 2.42 1.99 11.42 9.39 20 16.44 8.57 7.05 16.38 13.23 17.34 13.75 1.65 0.87 1.66 0.65 0.26-3.82-0.82-2.61-9.06-27.7-18.32-55.75l-16.83-51c-77.77-0.4-100.35-0.18-100.36 0.24z"/>
		<path id="Stroke" fill-rule="evenodd" class="s4" d="m0 0h640v640h-640zm275.32 472.62c-0.43 0.27-0.45 1.37-0.05 2.44 0.4 1.07 1.63 1.94 2.73 1.94 1.1 0 2.01-0.57 2.01-1.26 0.01-0.69-0.87-1.79-1.95-2.44-1.08-0.65-2.31-0.96-2.74-0.68z"/>
	</g>
</svg>
